<svg width="167" height="167" viewBox="0 0 167 167" fill="none" xmlns="http://www.w3.org/2000/svg">
<path d="M41.75 100.899C41.75 102.745 41.0169 104.515 39.7119 105.82C38.407 107.124 36.6371 107.858 34.7916 107.858C32.9462 107.858 31.1763 107.124 29.8714 105.82C28.5664 104.515 27.8333 102.745 27.8333 100.899V69.5868C27.8333 67.7413 28.5664 65.9714 29.8714 64.6665C31.1763 63.3615 32.9462 62.6284 34.7916 62.6284C36.6371 62.6284 38.407 63.3615 39.7119 64.6665C41.0169 65.9714 41.75 67.7413 41.75 69.5868V100.899ZM139.167 100.899C139.167 102.745 138.434 104.515 137.129 105.82C135.824 107.124 134.054 107.858 132.208 107.858C130.363 107.858 128.593 107.124 127.288 105.82C125.983 104.515 125.25 102.745 125.25 100.899V69.5868C125.25 67.7413 125.983 65.9714 127.288 64.6665C128.593 63.3615 130.363 62.6284 132.208 62.6284C134.054 62.6284 135.824 63.3615 137.129 64.6665C138.434 65.9714 139.167 67.7413 139.167 69.5868V100.899ZM76.5416 139.167C76.5416 141.012 75.8085 142.782 74.5036 144.087C73.1987 145.392 71.4288 146.125 69.5833 146.125C67.7378 146.125 65.968 145.392 64.663 144.087C63.3581 142.782 62.625 141.012 62.625 139.167V107.854C62.625 106.009 63.3581 104.239 64.663 102.934C65.968 101.629 67.7378 100.896 69.5833 100.896C71.4288 100.896 73.1987 101.629 74.5036 102.934C75.8085 104.239 76.5416 106.009 76.5416 107.854V139.167ZM104.375 139.167C104.375 141.012 103.642 142.782 102.337 144.087C101.032 145.392 99.2621 146.125 97.4166 146.125C95.5712 146.125 93.8013 145.392 92.4964 144.087C91.1914 142.782 90.4583 141.012 90.4583 139.167V107.854C90.4583 106.009 91.1914 104.239 92.4964 102.934C93.8013 101.629 95.5712 100.896 97.4166 100.896C99.2621 100.896 101.032 101.629 102.337 102.934C103.642 104.239 104.375 106.009 104.375 107.854V139.167Z" fill="#7CB342"/>
<path d="M48.7083 62.6284V114.812C48.7083 116.658 49.4414 118.428 50.7464 119.733C52.0513 121.038 53.8212 121.771 55.6666 121.771H111.333C113.179 121.771 114.949 121.038 116.254 119.733C117.559 118.428 118.292 116.658 118.292 114.812V62.6284H48.7083ZM83.5 27.8333C62.625 27.8333 49.9086 40.5148 48.7083 55.6666H118.292C117.088 40.5148 104.375 27.8333 83.5 27.8333ZM69.5833 47.3096C68.6606 47.3096 67.7756 46.9431 67.1232 46.2906C66.4707 45.6381 66.1041 44.7532 66.1041 43.8305C66.1041 42.9077 66.4707 42.0228 67.1232 41.3703C67.7756 40.7178 68.6606 40.3513 69.5833 40.3513C70.506 40.3513 71.391 40.7178 72.0435 41.3703C72.6959 42.0228 73.0625 42.9077 73.0625 43.8305C73.0625 44.7532 72.6959 45.6381 72.0435 46.2906C71.391 46.9431 70.506 47.3096 69.5833 47.3096ZM97.4166 47.3096C96.4939 47.3096 95.609 46.9431 94.9565 46.2906C94.304 45.6381 93.9375 44.7532 93.9375 43.8305C93.9375 42.9077 94.304 42.0228 94.9565 41.3703C95.609 40.7178 96.4939 40.3513 97.4166 40.3513C98.3394 40.3513 99.2243 40.7178 99.8768 41.3703C100.529 42.0228 100.896 42.9077 100.896 43.8305C100.896 44.7532 100.529 45.6381 99.8768 46.2906C99.2243 46.9431 98.3394 47.3096 97.4166 47.3096Z" fill="#7CB342"/>
<path d="M62.625 24.3542L67.2627 31.5979M104.375 24.3542L98.5787 33.0487L104.375 24.3542Z" stroke="#7CB342" stroke-width="2" stroke-linecap="round"/>
</svg>
