<svg width="95" height="134" viewBox="0 0 95 134" fill="none" xmlns="http://www.w3.org/2000/svg">
<path d="M47.4421 133.662L8.78084 122.926L0.165161 26.2678H94.8349L86.2103 122.911L47.4421 133.662Z" fill="#264DE4"/>
<path d="M78.8266 116.757L86.1965 34.1707H47.5V125.444L78.8266 116.757Z" fill="#2965F1"/>
<path d="M19.9162 70.02L20.9783 81.8748H47.5V70.02H19.9162ZM17.7817 46.0259L18.859 57.8806H47.5V46.0259H17.7817ZM47.5 100.808L47.448 100.822L34.249 97.2569L33.4051 87.8023H21.5078L23.1681 106.416L47.4454 113.157L47.5 113.142V100.808Z" fill="#EBEBEB"/>
<path d="M22.4453 0H36.7992V6.00439H28.4481V12.0088H36.7999V18.0128H22.4453V0ZM39.6703 0H54.0246V5.22117H45.6731V6.26534H54.0246V18.2741H39.6707V12.7912H48.0221V11.7471H39.6699V0H39.6703ZM56.8957 0H71.25V5.22117H62.8985V6.26534H71.25V18.2741H56.8957V12.7912H65.2472V11.7471H56.8961V0H56.8957Z" fill="black"/>
<path d="M75.0081 70.02L77.1474 46.0259H47.4592V57.8806H64.1591L63.0807 70.02H47.4592V81.8748H62.0532L60.6772 97.2495L47.4588 100.818V113.151L71.7554 106.416L71.9335 104.413L74.719 73.2034L75.0081 70.02Z" fill="white"/>
</svg>
