<svg width="95" height="134" viewBox="0 0 95 134" fill="none" xmlns="http://www.w3.org/2000/svg">
<path d="M94.8349 26.2678L86.2103 122.911L47.4421 133.662L8.78084 122.926L0.165161 26.2678H94.8349Z" fill="#E44D26"/>
<path d="M47.5 125.444L78.8266 116.757L86.1965 34.1707H47.5V125.444Z" fill="#F16529"/>
<path d="M30.734 57.8806H47.5V46.0259H17.7817L18.0652 49.2062L20.9783 81.8748H47.5V70.02H31.8172L30.734 57.8806ZM33.4051 87.8023H21.5078L23.1681 106.416L47.4454 113.157L47.5 113.142V100.808L47.448 100.822L34.249 97.2569L33.4051 87.8023Z" fill="#EBEBEB"/>
<path d="M8.97302 0H14.9959V5.95205H20.5055V0H26.5287V18.0243H20.5059V11.9887H14.9962V18.0243H8.97339V0H8.97302ZM34.4486 5.97729H29.1472V0H45.7774V5.97729H40.4726V18.0243H34.4497V5.97729H34.4493H34.4486ZM48.4166 0H54.6966L58.5597 6.33326L62.4191 0H68.7017V18.0243H62.7033V9.09047L58.5597 15.4991H58.4558L54.3095 9.09047V18.0243H48.4166V0ZM71.699 0H77.7237V12.0667H86.1935V18.0243H71.6986V0H71.699Z" fill="black"/>
<path d="M47.4592 81.8748H62.0532L60.6772 97.2495L47.4588 100.818V113.151L71.7554 106.416L71.9335 104.413L74.719 73.2034L75.0081 70.02H47.4592V81.8748ZM47.4592 57.8517V57.8806H76.0865L76.324 55.2162L76.8643 49.2062L77.1474 46.0259H47.4592V57.852V57.8517Z" fill="white"/>
</svg>
