<svg width="116" height="157" viewBox="0 0 116 157" fill="none" xmlns="http://www.w3.org/2000/svg">
<path d="M37.4073 121.368C37.4073 121.368 31.427 124.85 41.6635 126.029C54.0651 127.445 60.403 127.243 74.0697 124.652C74.0697 124.652 77.663 126.908 82.6804 128.863C52.0442 142.011 13.3437 128.101 37.4073 121.368ZM33.6636 104.209C33.6636 104.209 26.956 109.182 37.2003 110.243C50.4478 111.611 60.9096 111.723 79.0128 108.232C79.0128 108.232 81.5168 110.774 85.454 112.165C48.4124 123.011 7.15489 113.02 33.6636 104.209Z" fill="#5382A1"/>
<path d="M65.2238 75.1036C72.7728 83.8067 63.2404 91.6385 63.2404 91.6385C63.2404 91.6385 82.4081 81.7298 73.6052 69.3214C65.3837 57.7506 59.0785 52.0006 93.211 32.1777C93.211 32.1777 39.6344 45.5772 65.2238 75.1032" fill="#E76F00"/>
<path d="M105.743 134.059C105.743 134.059 110.169 137.71 100.869 140.536C83.1851 145.9 27.2668 147.52 11.7327 140.749C6.14887 138.317 16.6206 134.941 19.9144 134.232C23.3495 133.486 25.3129 133.626 25.3129 133.626C19.1028 129.245 -14.8263 142.228 8.07872 145.945C70.5434 156.089 121.945 141.378 105.743 134.059ZM40.2828 86.4318C40.2828 86.4318 11.8397 93.1973 30.2107 95.6535C37.9673 96.6935 53.4302 96.4585 67.8337 95.2496C79.605 94.2559 91.4247 92.1414 91.4247 92.1414C91.4247 92.1414 87.2741 93.9215 84.2712 95.9748C55.3872 103.582 -0.41148 100.043 15.6523 92.2617C29.2374 85.6858 40.2832 86.4318 40.2832 86.4318H40.2828ZM91.3074 114.992C120.67 99.7133 107.094 85.0306 97.618 87.009C95.2953 87.4927 94.2599 87.9119 94.2599 87.9119C94.2599 87.9119 95.1222 86.5597 96.7689 85.9744C115.515 79.3745 129.932 105.439 90.7174 115.762C90.7174 115.763 91.1719 115.356 91.3074 114.992Z" fill="#5382A1"/>
<path d="M73.6051 0.168423C73.6051 0.168423 89.8664 16.4583 58.1821 41.5062C32.775 61.5994 52.3885 73.0559 58.1717 86.1454C43.3409 72.746 32.4569 60.9501 39.759 49.9719C50.4758 33.8558 80.1659 26.0426 73.6051 0.167969" fill="#E76F00"/>
<path d="M43.1684 156.394C71.3523 158.201 114.632 155.392 115.657 142.037C115.657 142.037 113.686 147.1 92.3642 151.121C68.3086 155.654 38.6398 155.125 21.0427 152.219C21.0432 152.219 24.6451 155.205 43.1688 156.394" fill="#5382A1"/>
</svg>
