<svg width="134" height="134" viewBox="0 0 134 134" fill="none" xmlns="http://www.w3.org/2000/svg">
<path d="M0 0H134V134H0V0Z" fill="#F7DF1E"/>
<path d="M35.2336 111.98L45.4878 105.774C47.4664 109.282 49.2659 112.25 53.5827 112.25C57.7205 112.25 60.3298 110.631 60.3298 104.335V61.5191H72.9222V104.513C72.9222 117.556 65.2768 123.493 54.1224 123.493C44.0488 123.493 38.2015 118.275 35.2331 111.979L35.2336 111.98ZM79.7619 110.631L90.015 104.694C92.7144 109.102 96.2225 112.34 102.428 112.34C107.646 112.34 110.973 109.731 110.973 106.133C110.973 101.816 107.555 100.286 101.799 97.7687L98.6512 96.4182C89.5659 92.5516 83.5396 87.6941 83.5396 77.44C83.5396 67.9951 90.7353 60.7988 101.979 60.7988C109.985 60.7988 115.741 63.5877 119.879 70.8734L110.074 77.1704C107.914 73.3027 105.577 71.7737 101.979 71.7737C98.2906 71.7737 95.9518 74.1125 95.9518 77.1704C95.9518 80.948 98.2906 82.478 103.687 84.8168L106.835 86.1657C117.539 90.7536 123.566 95.4305 123.566 105.954C123.566 117.288 114.661 123.494 102.698 123.494C91.0048 123.494 83.449 117.917 79.7614 110.631" fill="black"/>
</svg>