<svg width="50" height="50" viewBox="0 0 50 50" fill="none" xmlns="http://www.w3.org/2000/svg">
<path fill-rule="evenodd" clip-rule="evenodd" d="M2.08333 5.91267C2.08333 4.89711 2.48676 3.92315 3.20487 3.20504C3.92297 2.48693 4.89694 2.0835 5.9125 2.0835H44.0833C44.5866 2.08268 45.0851 2.18113 45.5503 2.37322C46.0155 2.56531 46.4382 2.84727 46.7943 3.20295C47.1503 3.55863 47.4327 3.98105 47.6253 4.44602C47.8179 4.91099 47.9169 5.40939 47.9167 5.91267V44.0835C47.9172 44.5869 47.8185 45.0854 47.6262 45.5506C47.4339 46.0158 47.1517 46.4385 46.7959 46.7946C46.44 47.1506 46.0175 47.433 45.5524 47.6256C45.0873 47.8181 44.5888 47.9171 44.0854 47.9168H5.9125C5.40947 47.9168 4.91137 47.8177 4.44666 47.6252C3.98194 47.4326 3.55973 47.1504 3.20413 46.7946C2.84853 46.4388 2.56652 46.0164 2.37421 45.5516C2.1819 45.0868 2.08306 44.5886 2.08333 44.0856V5.91267ZM20.225 19.5585H26.4312V22.6752C27.3271 20.8835 29.6187 19.271 33.0625 19.271C39.6646 19.271 41.2292 22.8398 41.2292 29.3877V41.5168H34.5479V30.8793C34.5479 27.1502 33.6521 25.046 31.3771 25.046C28.2208 25.046 26.9083 27.3148 26.9083 30.8793V41.5168H20.225V19.5585ZM8.76666 41.2314H15.45V19.271H8.76666V41.2293V41.2314ZM16.4062 12.1085C16.4188 12.6807 16.317 13.2497 16.1067 13.7821C15.8965 14.3144 15.582 14.7994 15.1817 15.2086C14.7815 15.6177 14.3035 15.9428 13.7759 16.1648C13.2484 16.3867 12.6817 16.501 12.1094 16.501C11.537 16.501 10.9704 16.3867 10.4428 16.1648C9.91521 15.9428 9.43726 15.6177 9.03701 15.2086C8.63676 14.7994 8.32227 14.3144 8.112 13.7821C7.90172 13.2497 7.79989 12.6807 7.8125 12.1085C7.83723 10.9853 8.3008 9.9164 9.10392 9.13076C9.90705 8.34513 10.9859 7.9052 12.1094 7.9052C13.2329 7.9052 14.3117 8.34513 15.1148 9.13076C15.9179 9.9164 16.3815 10.9853 16.4062 12.1085Z" fill="black"/>
</svg>
