<svg width="170" height="116" viewBox="0 0 170 116" fill="none" xmlns="http://www.w3.org/2000/svg">
<g clip-path="url(#clip0_4_109)">
<path d="M50.5717 76.5457L55.7381 93.3265C56.8989 97.1365 57.383 99.7962 57.1891 101.312C60.0146 93.7366 61.9889 85.481 63.1122 76.5457H69.3245C66.6533 91.0926 63.1301 101.664 58.7569 108.258C55.3496 113.34 51.6169 115.88 47.5522 115.88C46.4684 115.88 45.1323 115.553 43.5469 114.902V111.395C44.3215 111.509 45.2303 111.57 46.2755 111.57C48.1718 111.57 49.7001 111.044 50.8629 109.994C52.2551 108.714 52.952 107.276 52.952 105.683C52.952 104.594 52.4085 102.361 51.3264 98.9829L44.1279 76.5457H50.5714H50.5717ZM11.0311 66.2317L20.494 95.134H20.5524L30.0734 66.2317H37.8522C39.5555 80.5652 40.5616 93.6798 40.8704 105.567H34.3121C34.0813 94.4549 33.4422 84.0056 32.397 74.2174H32.3398L22.353 105.567H17.3586L7.43219 74.2174H7.37375C6.6373 83.6177 6.17379 94.067 5.98055 105.567H0C0.386484 91.5808 1.35369 78.4702 2.90162 66.2317H11.0314H11.0311Z" fill="#00758F"/>
<path d="M117.04 65.648C127.219 65.648 132.309 72.158 132.309 85.1716C132.309 92.2433 130.778 97.5849 127.72 101.194C127.169 101.853 126.56 102.423 125.918 102.951L133.122 106.516L133.115 106.516L130.557 110.937L121.176 105.458C119.621 105.919 117.91 106.149 116.046 106.149C111.048 106.149 107.315 104.691 104.846 101.778C102.137 98.5561 100.783 93.4837 100.783 86.5696C100.783 79.5378 102.311 74.2164 105.37 70.6031C108.157 67.298 112.047 65.6477 117.04 65.6477V65.648ZM85.8693 65.7052C89.5074 65.7052 92.8154 66.6797 95.795 68.6218L94.2816 71.9978C91.732 70.9129 89.2182 70.3681 86.7392 70.3681C84.7278 70.3681 83.1778 70.8527 82.0974 71.8279C81.011 72.7945 80.339 74.0383 80.339 75.5546C80.339 77.8845 81.9971 79.9051 85.0588 81.6122C86.0618 82.161 87.0614 82.7162 88.0574 83.2777L88.2858 83.4063L88.4004 83.4708L88.6291 83.5995L88.7433 83.6639L88.9718 83.7929C91.2894 85.1008 93.4701 86.3492 93.4701 86.3492C96.5315 88.5246 98.0575 90.844 98.0575 94.664C98.0575 98.0001 96.8363 100.739 94.4018 102.881C91.9657 105.015 88.6929 106.084 84.5943 106.084C80.761 106.084 77.0459 104.853 73.4473 102.411L75.1307 99.0324C78.2276 100.586 81.0299 101.362 83.5464 101.362C85.9065 101.362 87.7539 100.835 89.0903 99.7933C90.4241 98.7439 91.2233 97.2805 91.2233 95.4248C91.2233 93.0892 89.6003 91.0926 86.623 89.4177C85.6911 88.9023 84.7619 88.3819 83.8356 87.8566L83.6075 87.7273C83.1885 87.4903 82.7664 87.2503 82.3531 87.0153L82.1289 86.8877C80.1185 85.743 78.3803 84.7428 78.3803 84.7428C75.404 82.5634 73.9115 80.2251 73.9115 76.3722C73.9115 73.1857 75.0245 70.6101 77.2471 68.6507C79.475 66.6871 82.3494 65.7052 85.8693 65.7052ZM144.272 66.2317V100.729H156.636V105.567H138.001V66.2317H144.272ZM163.506 100.744V101.561H162.147V105.563H161.108V101.561H159.696V100.744H163.507H163.506ZM166.017 100.744L167.322 104.029L168.521 100.744H169.994V105.563H169.015V101.895L167.65 105.563H166.944L165.577 101.895H165.524V105.563H164.598V100.744H166.017H166.017ZM116.4 70.4855C110.402 70.4855 107.401 75.4412 107.401 85.3461C107.401 91.0198 108.196 95.134 109.784 97.6983C111.254 100.071 113.556 101.256 116.692 101.256C122.69 101.256 125.691 96.2614 125.691 86.2774C125.691 80.6832 124.896 76.6042 123.31 74.0386C121.838 71.6707 119.537 70.4855 116.401 70.4855H116.4Z" fill="#F29111"/>
<path d="M100.678 2.43735C102.668 -2.45725 109.625 1.24943 112.326 2.95919C112.987 3.38696 113.746 4.29069 114.505 4.62473C115.689 4.67127 116.871 4.764 118.057 4.81352C120.281 5.33669 122.364 5.76413 124.117 6.76325C132.261 11.5645 137.562 16.4571 142.441 24.5385C143.484 26.2503 144.005 28.1026 144.857 29.9549C146.039 32.716 147.367 35.6143 148.739 38.2252C149.353 39.463 149.828 40.8393 150.681 41.8847C151.014 42.3626 151.96 42.5036 152.526 42.7891C154.089 43.5991 155.983 44.214 157.453 45.1646C160.198 46.8783 162.853 48.9204 165.266 51.0111C166.166 51.8181 166.779 52.9605 167.636 53.8141V54.2448C166.875 54.4785 166.117 54.7178 165.358 54.9096C163.701 55.3357 162.233 55.2393 160.625 55.6657C159.632 55.9542 158.398 56.3348 157.357 56.4315L157.453 56.5286C158.066 58.2819 161.382 59.7078 162.899 60.7564C164.741 62.0873 166.448 63.7013 167.822 65.555C168.296 66.028 168.771 66.4584 169.243 66.93C169.573 67.408 169.666 68.0262 170 68.4523V68.5966C169.63 68.466 169.364 68.2167 169.112 67.9561L168.962 67.7989C168.811 67.6426 168.66 67.4891 168.487 67.3624C167.441 66.6478 166.403 65.793 165.358 65.1285C163.561 63.9872 161.477 63.3247 159.632 62.179C158.589 61.5139 157.594 60.7564 156.6 59.9953C155.698 59.3282 154.706 58.0472 154.139 57.0966C153.806 56.5715 153.76 55.9542 153.379 55.5743C153.447 54.9398 154.027 54.7514 154.613 54.5965L154.748 54.5609C154.95 54.5084 155.148 54.4559 155.321 54.3864C157.783 53.3401 160.717 52.9605 164.507 53.0556C164.364 52.103 161.996 50.916 161.24 50.3457C159.723 49.2508 158.116 48.1084 156.507 47.112C155.654 46.5901 154.184 46.2092 153.239 45.7828C151.96 45.2596 149.118 44.7368 148.41 43.7403C147.206 42.1695 146.341 40.2959 145.502 38.4033L145.274 37.8868C145.197 37.7147 145.121 37.5426 145.045 37.3706C144.052 35.0915 142.82 32.7153 141.825 30.3817C141.306 29.2433 141.067 28.2442 140.497 27.1523C137.042 20.4523 131.928 14.8427 125.727 10.8977C123.689 9.61406 121.417 8.42614 118.909 7.6188C117.488 7.18903 115.782 7.42668 114.267 7.09696H113.27C112.42 6.85699 111.71 5.95425 111.046 5.47828C109.58 4.48181 108.112 3.81273 106.359 3.10178C105.744 2.8166 103.99 2.1525 103.378 2.67533C102.999 2.77073 102.807 2.91398 102.713 3.29489C102.336 3.86325 102.668 4.71946 102.902 5.24362C103.614 6.76259 104.607 7.66533 105.509 8.94897C106.311 10.0874 107.308 11.371 107.876 12.6088C109.103 15.2695 109.675 18.2173 110.812 20.8777C111.234 21.8782 111.901 23.0165 112.515 23.919C113.035 24.6352 113.981 25.1531 114.267 26.0598C114.838 27.0104 113.413 30.1471 113.084 31.1432C111.85 35.041 112.089 40.4591 113.51 43.8377L113.585 44.0159L113.661 44.1964C114.18 45.4338 114.735 46.7663 116.114 47.1123C116.209 47.0179 116.114 47.0674 116.302 47.0179C116.636 44.4028 116.73 41.8843 117.63 39.8382C118.15 38.5589 119.189 37.6545 119.901 36.6102C120.376 36.8947 120.376 37.7525 120.659 38.3202C121.275 39.7927 121.937 41.407 122.697 42.8838C124.256 45.9251 126.011 48.8736 127.998 51.5339C128.664 52.4842 129.609 53.5302 130.461 54.3861C130.84 54.7175 131.265 54.9089 131.55 55.3353H131.643V55.4789C130.223 54.9548 129.323 53.4837 128.19 52.6248C126.057 51.0104 123.502 48.5861 122.032 46.2598C121.417 44.9243 120.752 43.6443 120.09 42.3154V42.2194C119.807 42.5989 119.901 42.9759 119.76 43.5502C119.145 45.9251 119.618 48.6343 117.488 49.4885C115.072 50.4889 113.271 47.8741 112.515 46.6859C110.099 42.7419 109.437 36.0883 111.141 30.7174C111.519 29.5285 111.571 28.1026 112.232 27.1533C112.089 26.2951 111.428 26.0605 111.046 25.5346C110.383 24.6359 109.816 23.5889 109.297 22.5908C108.3 20.641 107.591 18.3114 106.834 16.2204C106.501 15.3665 106.406 14.5093 106.074 13.701C105.509 12.4672 104.466 11.2294 103.661 10.1379C102.572 8.56907 99.3989 5.52847 100.678 2.43735ZM116.208 11.7489C116.334 11.8759 116.487 11.9869 116.645 12.0963L116.835 12.2272C117.089 12.4034 117.336 12.5888 117.486 12.8415C117.725 13.1758 117.77 13.5059 118.056 13.8409C118.056 14.9833 117.725 15.7428 117.058 16.2161C117.058 16.2161 117.012 16.2659 116.965 16.3125C116.587 15.551 116.255 14.7935 115.874 14.0327C115.404 13.3686 114.741 12.8418 114.358 12.083H114.266V11.9876C114.838 11.8463 115.404 11.7489 116.208 11.7489Z" fill="#00758F"/>
</g>
<defs>
<clipPath id="clip0_4_109">
<rect width="170" height="116" fill="white"/>
</clipPath>
</defs>
</svg>
