<svg width="203" height="124" viewBox="0 0 203 124" fill="none" xmlns="http://www.w3.org/2000/svg">
<g clip-path="url(#clip0_4_72)">
<path d="M100.354 123.642C99.6671 123.642 99.0256 123.46 98.4296 123.14L92.3353 119.535C91.4186 119.033 91.8769 118.85 92.1521 118.759C93.3891 118.348 93.6183 118.257 94.9013 117.527C95.0389 117.435 95.2225 117.481 95.3597 117.572L100.034 120.356C100.217 120.448 100.446 120.448 100.583 120.356L118.867 109.813C119.05 109.722 119.142 109.539 119.142 109.311V88.2707C119.142 88.042 119.05 87.86 118.867 87.7684L100.583 77.271C100.4 77.1794 100.171 77.1794 100.034 77.271L81.7499 87.7684C81.5668 87.8596 81.4748 88.0878 81.4748 88.2703V109.311C81.4748 109.494 81.5668 109.722 81.7499 109.813L86.7448 112.688C89.4485 114.058 91.1438 112.46 91.1438 110.863V90.0959C91.1438 89.8223 91.373 89.5482 91.6938 89.5482H94.0306C94.3058 89.5482 94.5806 89.7765 94.5806 90.0959V110.863C94.5806 114.468 92.61 116.568 89.1733 116.568C88.1195 116.568 87.2948 116.568 84.9575 115.427L80.1462 112.688C78.9547 112.004 78.2216 110.726 78.2216 109.357V88.3161C78.2216 86.947 78.9547 85.6687 80.1462 84.9843L98.4296 74.4411C99.5755 73.8022 101.134 73.8022 102.279 74.4411L120.563 84.9843C121.754 85.6687 122.488 86.947 122.488 88.3161V109.357C122.488 110.726 121.754 112.004 120.563 112.688L102.279 123.232C101.683 123.506 100.996 123.642 100.355 123.642H100.354ZM105.991 109.174C97.9717 109.174 96.3219 105.523 96.3219 102.419C96.3219 102.145 96.5511 101.872 96.8718 101.872H99.2547C99.5295 101.872 99.7587 102.054 99.7587 102.328C100.125 104.747 101.179 105.934 106.037 105.934C109.886 105.934 111.536 105.066 111.536 103.012C111.536 101.826 111.077 100.959 105.074 100.365C100.079 99.8631 96.9634 98.768 96.9634 94.7973C96.9634 91.1002 100.08 88.9092 105.303 88.9092C111.169 88.9092 114.056 90.9177 114.423 95.2988C114.423 95.4362 114.377 95.5729 114.285 95.7099C114.193 95.8011 114.056 95.8923 113.918 95.8923H111.535C111.306 95.8923 111.077 95.7099 111.031 95.4816C110.482 92.9716 109.061 92.1498 105.303 92.1498C101.088 92.1498 100.583 93.6106 100.583 94.7057C100.583 96.0294 101.179 96.4401 106.861 97.1703C112.498 97.9008 115.156 98.9505 115.156 102.875C115.11 106.892 111.811 109.174 105.991 109.174Z" fill="#539E43"/>
<path d="M43.6244 41.3513C43.6244 40.5299 43.166 39.7535 42.4329 39.3428L23.0036 28.2065C22.6825 28.0237 22.3161 27.9325 21.9498 27.8867H21.7662C21.3998 27.8867 21.0331 28.0237 20.7123 28.2065L1.28302 39.3428C0.549523 39.7535 0.0915833 40.5295 0.0915833 41.3513L0.137575 71.2918C0.137575 71.7025 0.366743 72.1132 0.733095 72.296C1.09984 72.5243 1.55778 72.5243 1.87893 72.296L13.4265 65.7236C14.1596 65.3129 14.618 64.537 14.618 63.7156V49.7036C14.618 48.8822 15.0759 48.1062 15.8094 47.6955L20.7123 44.8656C21.0791 44.6373 21.4914 44.5457 21.9038 44.5457C22.3161 44.5457 22.7285 44.6373 23.0496 44.8656L27.9525 47.6955C28.686 48.1062 29.144 48.8818 29.144 49.7036V63.7156C29.144 64.537 29.6023 65.3129 30.3354 65.7236L41.883 72.296C42.0614 72.4079 42.2679 72.4673 42.4787 72.4673C42.6895 72.4673 42.8961 72.4079 43.0745 72.296C43.4412 72.1132 43.6704 71.7025 43.6704 71.2918L43.6244 41.3513ZM137.014 0.137131C136.647 -0.0457102 136.189 -0.0457102 135.868 0.137131C135.501 0.365385 135.272 0.730277 135.272 1.14098V30.8082C135.272 31.0818 135.135 31.3555 134.86 31.5384C134.585 31.675 134.31 31.675 134.035 31.5384L129.178 28.7543C128.822 28.5523 128.419 28.4461 128.009 28.4461C127.599 28.4461 127.197 28.5523 126.841 28.7543L107.411 39.9364C106.678 40.3471 106.22 41.1231 106.22 41.9445V64.2629C106.22 65.0843 106.678 65.8607 107.411 66.2714L126.841 77.4535C127.197 77.6554 127.599 77.7616 128.009 77.7616C128.419 77.7616 128.822 77.6554 129.178 77.4535L148.607 66.2714C149.34 65.8607 149.799 65.0847 149.799 64.2629V8.62639C149.799 7.75918 149.34 6.98359 148.607 6.57249L137.014 0.137131H137.014ZM135.227 56.9149C135.227 57.1432 135.135 57.3256 134.951 57.4168L128.307 61.2506C128.214 61.2957 128.112 61.3191 128.009 61.3191C127.906 61.3191 127.804 61.2957 127.711 61.2506L121.067 57.4168C120.883 57.3256 120.792 57.0974 120.792 56.9149V49.2471C120.792 49.0188 120.883 48.8363 121.067 48.7451L127.711 44.911C127.804 44.8659 127.906 44.8425 128.009 44.8425C128.112 44.8425 128.214 44.8659 128.307 44.911L134.951 48.7451C135.135 48.836 135.227 49.0646 135.227 49.2471V56.9149ZM201.671 49.0646C202.404 48.6539 202.817 47.8779 202.817 47.0561V41.625C202.817 40.8036 202.358 40.0276 201.671 39.6169L182.379 28.4806C182.023 28.2787 181.62 28.1725 181.211 28.1725C180.801 28.1725 180.398 28.2787 180.042 28.4806L160.613 39.6623C159.879 40.073 159.421 40.849 159.421 41.6704V63.9892C159.421 64.8106 159.88 65.5866 160.613 65.9973L179.904 76.9512C180.638 77.3619 181.509 77.3619 182.196 76.9512L193.881 70.4708C194.248 70.2879 194.477 69.8773 194.477 69.4666C194.477 69.0558 194.248 68.6451 193.881 68.4623L174.36 57.2802C173.993 57.0519 173.764 56.687 173.764 56.2763V49.2933C173.764 48.8826 173.993 48.4719 174.36 48.289L180.454 44.8202C180.633 44.7083 180.839 44.649 181.05 44.649C181.261 44.649 181.467 44.7083 181.646 44.8202L187.741 48.289C188.107 48.5173 188.336 48.8822 188.336 49.2933V54.7702C188.336 55.1809 188.565 55.5916 188.932 55.774C189.11 55.8859 189.317 55.9453 189.528 55.9453C189.738 55.9453 189.945 55.8859 190.123 55.774L201.671 49.0646Z" fill="#333333"/>
<path d="M180.913 48.0145C180.981 47.9699 181.06 47.946 181.142 47.946C181.223 47.946 181.303 47.9699 181.371 48.0145L185.083 50.1596C185.22 50.2513 185.312 50.3879 185.312 50.5703V54.861C185.312 55.0434 185.22 55.1805 185.083 55.2717L181.371 57.4168C181.303 57.4615 181.223 57.4853 181.142 57.4853C181.06 57.4853 180.981 57.4615 180.913 57.4168L177.201 55.2717C177.064 55.1805 176.972 55.0434 176.972 54.861V50.5707C176.972 50.3879 177.063 50.2509 177.201 50.16L180.913 48.0145Z" fill="#539E43"/>
<path d="M95.4512 39.6625L76.0679 28.572C75.8774 28.4762 75.6778 28.3997 75.472 28.3438L53.7514 65.4047C53.9313 65.6235 54.1486 65.809 54.3933 65.9525L73.7766 77.0434C74.3265 77.3628 74.968 77.4541 75.5636 77.2712L95.9555 40.1194C95.818 39.937 95.6344 39.7995 95.4512 39.6629V39.6625Z" fill="url(#paint0_linear_4_72)"/>
<path fill-rule="evenodd" clip-rule="evenodd" d="M73.1351 24.5095L72.8604 24.6466H73.2267L73.1351 24.5095Z" fill="url(#paint1_linear_4_72)"/>
<path fill-rule="evenodd" clip-rule="evenodd" d="M95.4972 65.9062C96.0471 65.5867 96.4595 65.039 96.643 64.4459L75.38 28.2979C74.8301 28.2067 74.2341 28.2521 73.7306 28.5716L54.4845 39.617L75.2424 77.3166C75.5443 77.2674 75.8375 77.1752 76.1131 77.0429L95.4968 65.9066L95.4972 65.9062Z" fill="url(#paint2_linear_4_72)"/>
<path fill-rule="evenodd" clip-rule="evenodd" d="M97.2846 65.5412L97.147 65.313V65.6325L97.2842 65.5412H97.2846Z" fill="url(#paint3_linear_4_72)"/>
<path fill-rule="evenodd" clip-rule="evenodd" d="M95.4972 65.9061L76.1595 76.997C75.8865 77.1356 75.5923 77.2281 75.2888 77.2706L75.6556 77.9554L97.101 65.587V65.3129L96.5511 64.3999C96.4595 65.0389 96.0472 65.5866 95.4972 65.9061Z" fill="url(#paint4_linear_4_72)"/>
<path fill-rule="evenodd" clip-rule="evenodd" d="M95.4972 65.9061L76.1595 76.997C75.8865 77.1356 75.5923 77.2281 75.2888 77.2706L75.6556 77.9554L97.101 65.587V65.3129L96.5511 64.3999C96.4595 65.0389 96.0472 65.5866 95.4972 65.9061Z" fill="url(#paint5_linear_4_72)"/>
</g>
<defs>
<linearGradient id="paint0_linear_4_72" x1="72.0161" y1="55.388" x2="124.878" y2="26.5532" gradientUnits="userSpaceOnUse">
<stop offset="0.1376" stop-color="#41873F"/>
<stop offset="0.4032" stop-color="#54A044"/>
<stop offset="0.7136" stop-color="#66B848"/>
<stop offset="0.9081" stop-color="#6CC04A"/>
</linearGradient>
<linearGradient id="paint1_linear_4_72" x1="56.6904" y1="24.5279" x2="92.3793" y2="24.5279" gradientUnits="userSpaceOnUse">
<stop offset="0.09192" stop-color="#6CC04A"/>
<stop offset="0.2864" stop-color="#66B848"/>
<stop offset="0.5968" stop-color="#54A044"/>
<stop offset="0.8624" stop-color="#41873F"/>
</linearGradient>
<linearGradient id="paint2_linear_4_72" x1="52.6341" y1="52.785" x2="97.275" y2="52.785" gradientUnits="userSpaceOnUse">
<stop offset="0.09192" stop-color="#6CC04A"/>
<stop offset="0.2864" stop-color="#66B848"/>
<stop offset="0.5968" stop-color="#54A044"/>
<stop offset="0.8624" stop-color="#41873F"/>
</linearGradient>
<linearGradient id="paint3_linear_4_72" x1="83.7828" y1="65.4287" x2="97.1854" y2="65.4287" gradientUnits="userSpaceOnUse">
<stop offset="0.09192" stop-color="#6CC04A"/>
<stop offset="0.2864" stop-color="#66B848"/>
<stop offset="0.5968" stop-color="#54A044"/>
<stop offset="0.8624" stop-color="#41873F"/>
</linearGradient>
<linearGradient id="paint4_linear_4_72" x1="52.6345" y1="71.2149" x2="97.2748" y2="71.2149" gradientUnits="userSpaceOnUse">
<stop offset="0.09192" stop-color="#6CC04A"/>
<stop offset="0.2864" stop-color="#66B848"/>
<stop offset="0.5968" stop-color="#54A044"/>
<stop offset="0.8624" stop-color="#41873F"/>
</linearGradient>
<linearGradient id="paint5_linear_4_72" x1="103.778" y1="35.7885" x2="92.556" y2="94.8285" gradientUnits="userSpaceOnUse">
<stop stop-color="#41873F"/>
<stop offset="0.3288" stop-color="#418B3D"/>
<stop offset="0.6352" stop-color="#419637"/>
<stop offset="0.9319" stop-color="#3FA92D"/>
<stop offset="1" stop-color="#3FAE2A"/>
</linearGradient>
<clipPath id="clip0_4_72">
<rect width="203" height="124" fill="white"/>
</clipPath>
</defs>
</svg>
