<svg width="147" height="146" viewBox="0 0 147 146" fill="none" xmlns="http://www.w3.org/2000/svg">
<path d="M72.8775 0.0412598C35.6498 0.0412598 37.9742 16.1385 37.9742 16.1385L38.0156 32.8157H73.5413V37.8226H23.9053C23.9053 37.8226 0.083252 35.1288 0.083252 72.5821C0.083252 110.037 20.8757 108.708 20.8757 108.708H33.2846V91.3279C33.2846 91.3279 32.6156 70.5959 53.7451 70.5959H88.9804C88.9804 70.5959 108.777 70.9148 108.777 51.5191V19.4495C108.777 19.4495 111.783 0.0412598 72.8775 0.0412598ZM53.2886 11.2564C54.1281 11.2556 54.9595 11.4199 55.7353 11.7399C56.511 12.0599 57.2159 12.5292 57.8095 13.1211C58.4031 13.713 58.8738 14.4158 59.1947 15.1893C59.5157 15.9628 59.6805 16.7918 59.6797 17.6288C59.6805 18.4659 59.5157 19.2949 59.1947 20.0684C58.8738 20.8418 58.4031 21.5446 57.8095 22.1365C57.2159 22.7284 56.511 23.1978 55.7353 23.5178C54.9595 23.8377 54.1281 24.002 53.2886 24.0013C52.4491 24.002 51.6177 23.8377 50.842 23.5178C50.0663 23.1978 49.3614 22.7284 48.7678 22.1365C48.1742 21.5446 47.7034 20.8418 47.3825 20.0684C47.0616 19.2949 46.8968 18.4659 46.8976 17.6288C46.8968 16.7918 47.0616 15.9628 47.3825 15.1893C47.7034 14.4158 48.1742 13.713 48.7678 13.1211C49.3614 12.5292 50.0663 12.0599 50.842 11.7399C51.6177 11.4199 52.4491 11.2556 53.2886 11.2564Z" fill="url(#paint0_linear_4_63)"/>
<path d="M73.9347 145.5C111.162 145.5 108.838 129.402 108.838 129.402L108.797 112.726H73.2703V107.719H122.906C122.906 107.719 146.728 110.413 146.728 72.9583C146.728 35.5044 125.936 36.8327 125.936 36.8327H113.527V54.2125C113.527 54.2125 114.196 74.9445 93.0665 74.9445H57.8313C57.8313 74.9445 38.0351 74.6255 38.0351 94.0218V126.092C38.0351 126.092 35.0291 145.5 73.9341 145.5H73.9347ZM93.5236 134.286C92.6841 134.286 91.8527 134.122 91.077 133.802C90.3012 133.482 89.5964 133.013 89.0028 132.421C88.4091 131.829 87.9384 131.126 87.6175 130.353C87.2966 129.579 87.1318 128.75 87.1325 127.913C87.1317 127.076 87.2964 126.247 87.6173 125.474C87.9382 124.7 88.4089 123.997 89.0026 123.405C89.5962 122.813 90.301 122.344 91.0768 122.024C91.8526 121.704 92.6841 121.539 93.5236 121.54C94.3631 121.539 95.1945 121.704 95.9702 122.024C96.746 122.344 97.4508 122.813 98.0444 123.405C98.6381 123.997 99.1088 124.7 99.4297 125.473C99.7506 126.247 99.9154 127.076 99.9147 127.913C99.9154 128.75 99.7506 129.579 99.4297 130.352C99.1088 131.126 98.6381 131.828 98.0444 132.42C97.4508 133.012 96.746 133.482 95.9702 133.802C95.1945 134.122 94.3631 134.286 93.5236 134.285V134.286Z" fill="url(#paint1_linear_4_63)"/>
<defs>
<linearGradient id="paint0_linear_4_63" x1="14.1758" y1="13.1244" x2="86.6392" y2="85.074" gradientUnits="userSpaceOnUse">
<stop stop-color="#387EB8"/>
<stop offset="1" stop-color="#366994"/>
</linearGradient>
<linearGradient id="paint1_linear_4_63" x1="58.7824" y1="59.1907" x2="136.61" y2="132.978" gradientUnits="userSpaceOnUse">
<stop stop-color="#FFE052"/>
<stop offset="1" stop-color="#FFC331"/>
</linearGradient>
</defs>
</svg>
