<svg width="163" height="145" viewBox="0 0 163 145" fill="none" xmlns="http://www.w3.org/2000/svg">
<path d="M134.018 46.9496C132.284 46.3552 130.534 45.8044 128.772 45.298C129.068 44.0897 129.34 42.896 129.582 41.7233C133.554 22.4656 130.958 6.95123 122.089 1.84316C113.586 -3.05377 99.679 2.05239 85.6342 14.261C84.25 15.4664 82.8966 16.7065 81.5751 17.9801C80.6905 17.1332 79.7902 16.3027 78.8748 15.4891C64.1551 2.43524 49.4011 -3.06649 40.5418 2.05621C32.0461 6.9684 29.5304 21.553 33.1062 39.8039C33.4619 41.6115 33.8636 43.4097 34.3109 45.1969C32.2224 45.7896 30.2072 46.4205 28.2786 47.0921C11.021 53.1019 0 62.5199 0 72.289C0 82.3786 11.8315 92.4987 29.8061 98.6351C31.2633 99.1306 32.7327 99.5897 34.2128 100.012C33.7321 101.937 33.3053 103.875 32.933 105.823C29.524 123.758 32.1861 137.998 40.6589 142.879C49.41 147.919 64.0978 142.739 78.3992 130.251C79.5589 129.236 80.693 128.192 81.8005 127.121C83.2316 128.5 84.7009 129.839 86.2066 131.136C100.06 143.043 113.742 147.851 122.207 142.956C130.949 137.901 133.791 122.603 130.102 103.992C129.811 102.534 129.486 101.083 129.125 99.6406C130.156 99.3353 131.169 99.0211 132.155 98.6943C150.842 92.5108 163 82.5134 163 72.289C163 62.4843 151.623 53.0027 134.018 46.9496ZM129.966 92.0929C129.074 92.3874 128.16 92.6717 127.228 92.9483C125.165 86.4252 122.381 79.4894 118.974 72.3227C122.225 65.3271 124.902 58.4797 126.907 51.9992C128.575 52.4812 130.192 52.9894 131.752 53.5255C146.836 58.7124 156.037 66.3802 156.037 72.289C156.037 78.5825 146.1 86.7527 129.966 92.0929ZM123.271 105.343C124.903 113.572 125.135 121.013 124.054 126.83C123.084 132.057 121.132 135.541 118.717 136.937C113.581 139.907 102.596 136.047 90.7483 125.864C89.3478 124.658 87.9811 123.413 86.6498 122.131C91.2431 117.114 95.8332 111.281 100.313 104.803C108.193 104.105 115.638 102.963 122.389 101.404C122.714 102.71 123.008 104.023 123.271 105.343ZM55.5703 136.424C50.5516 138.194 46.5543 138.245 44.138 136.853C38.9965 133.892 36.859 122.458 39.7745 107.121C40.1211 105.308 40.5179 103.506 40.9646 101.716C47.6412 103.191 55.0316 104.252 62.9301 104.892C67.4406 111.23 72.1632 117.056 76.9226 122.158C75.9112 123.136 74.8758 124.088 73.8174 125.015C67.4928 130.536 61.1556 134.454 55.5703 136.424ZM32.0588 92.0541C24.1106 89.3405 17.5467 85.8141 13.0476 81.9658C9.00448 78.5081 6.96379 75.0745 6.96379 72.289C6.96379 66.3605 15.8123 58.7989 30.5708 53.6597C32.3619 53.0364 34.2364 52.4482 36.1815 51.8961C38.2216 58.5229 40.8971 65.4517 44.1259 72.4582C40.8551 79.5682 38.1414 86.6077 36.0816 93.3127C34.7305 92.9262 33.3892 92.5065 32.0588 92.0541ZM39.9401 38.4677C36.8768 22.8313 38.9112 11.036 44.031 8.07562C49.4839 4.9225 61.542 9.41814 74.2516 20.69C75.0804 21.4267 75.8957 22.1783 76.6972 22.9445C71.9613 28.0239 67.2821 33.8068 62.8117 40.1079C55.1456 40.8176 47.8074 41.9573 41.0607 43.4842C40.645 41.822 40.2714 40.1495 39.9401 38.4684V38.4677ZM110.251 55.8092C108.657 53.0599 107.005 50.3452 105.294 47.667C110.495 48.3239 115.478 49.1958 120.157 50.2617C118.753 54.7593 117.002 59.4609 114.94 64.2816C113.434 61.4266 111.87 58.6019 110.251 55.8092ZM81.5783 27.9152C84.7899 31.3907 88.0066 35.2707 91.1705 39.4808C84.7524 39.1781 78.3235 39.1768 71.9053 39.477C75.0723 35.3057 78.3164 31.4308 81.5783 27.9152ZM52.7216 55.8569C51.1224 58.6271 49.5881 61.4342 48.12 64.2758C46.0927 59.4724 44.3577 54.7491 42.941 50.1879C47.5915 49.1488 52.5509 48.2991 57.7186 47.6543C55.9889 50.3488 54.3227 53.0836 52.7216 55.8563V55.8569ZM57.8669 97.4185C52.528 96.8233 47.4941 96.0175 42.8448 95.0063C44.2838 90.3638 46.057 85.54 48.1283 80.6335C49.6022 83.4773 51.1428 86.2861 52.749 89.0575C54.4006 91.9066 56.1108 94.6972 57.8669 97.4185ZM81.7706 117.153C78.4699 113.596 75.178 109.661 71.9632 105.43C75.0844 105.552 78.2661 105.614 81.5 105.614C84.8224 105.614 88.1066 105.54 91.3392 105.396C88.1652 109.704 84.9606 113.645 81.7706 117.153ZM115.006 80.3829C117.185 85.3434 119.021 90.1418 120.479 94.7048C115.754 95.7822 110.651 96.6496 105.274 97.2939C106.997 94.5659 108.666 91.804 110.278 89.0098C111.918 86.1696 113.494 83.2932 115.006 80.3829ZM104.247 85.5349C101.778 89.819 99.1698 94.0217 96.4272 98.1365C91.4593 98.488 86.4804 98.6625 81.5 98.6599C76.4273 98.6599 71.4933 98.5022 66.7421 98.1944C63.928 94.0891 61.2703 89.879 58.7749 85.573H58.7755C56.2918 81.2899 53.9718 76.914 51.8206 72.455C53.9663 67.9949 56.2793 63.617 58.7545 59.3306L58.7539 59.3312C61.2281 55.0437 63.8646 50.8516 66.6574 46.7639C71.5048 46.3976 76.4757 46.2068 81.4994 46.2068H81.5C86.5466 46.2068 91.5239 46.3995 96.3699 46.7684C99.1346 50.8499 101.754 55.0276 104.224 59.2937C106.707 63.5707 109.051 67.9272 111.251 72.3564C109.073 76.8309 106.737 81.2265 104.247 85.5349ZM118.611 7.86829C124.069 11.0125 126.192 23.6917 122.763 40.319C122.544 41.3798 122.298 42.4603 122.03 43.5561C115.267 41.9967 107.924 40.8373 100.235 40.1168C95.7568 33.7463 91.1157 27.9546 86.4569 22.9407C87.6779 21.7651 88.9279 20.62 90.2059 19.5065C102.24 9.04673 113.487 4.91678 118.611 7.86829ZM81.5 57.7508C89.5386 57.7508 96.0554 64.2599 96.0554 72.289C96.0554 80.3181 89.5386 86.8272 81.5 86.8272C73.4614 86.8272 66.9446 80.3181 66.9446 72.289C66.9446 64.2599 73.4614 57.7508 81.5 57.7508Z" fill="#00D8FF"/>
</svg>
