<svg width="50" height="50" viewBox="0 0 50 50" fill="none" xmlns="http://www.w3.org/2000/svg">
<path d="M49.2562 10.2856C47.5167 11.0565 45.6479 11.5773 43.6833 11.8127C45.7104 10.5998 47.227 8.69076 47.95 6.44187C46.0455 7.5731 43.9611 8.36936 41.7875 8.79604C40.3258 7.23534 38.3897 6.20088 36.2798 5.85327C34.17 5.50566 32.0044 5.86435 30.1192 6.87364C28.2341 7.88294 26.7349 9.48637 25.8545 11.435C24.974 13.3836 24.7615 15.5684 25.25 17.6502C21.391 17.4564 17.6159 16.4534 14.1696 14.7063C10.7234 12.9591 7.683 10.5068 5.24583 7.50853C4.4125 8.94603 3.93333 10.6127 3.93333 12.3877C3.9324 13.9856 4.3259 15.559 5.07891 16.9684C5.83193 18.3777 6.92117 19.5794 8.25 20.4669C6.70891 20.4178 5.20182 20.0014 3.85417 19.2523V19.3773C3.85401 21.6184 4.62924 23.7906 6.0483 25.5252C7.46736 27.2598 9.44286 28.4501 11.6396 28.894C10.21 29.2809 8.71112 29.3379 7.25625 29.0606C7.87604 30.989 9.08332 32.6753 10.7091 33.8834C12.3349 35.0915 14.2977 35.761 16.3229 35.7981C12.8851 38.4969 8.63935 39.9608 4.26875 39.9544C3.49454 39.9546 2.72099 39.9094 1.95208 39.819C6.38849 42.6714 11.5528 44.1852 16.8271 44.1794C34.6812 44.1794 44.4417 29.3919 44.4417 16.5669C44.4417 16.1502 44.4313 15.7294 44.4125 15.3127C46.311 13.9397 47.9498 12.2396 49.2521 10.2919L49.2562 10.2856Z" fill="black"/>
</svg>
